G75*
%MOIN*%
%OFA0B0*%
%FSLAX25Y25*%
%IPPOS*%
%LPD*%
%AMOC8*
5,1,8,0,0,1.08239X$1,22.5*
%
%ADD10C,0.00000*%
%ADD11C,0.00400*%
%ADD12C,0.00300*%
%ADD13C,0.00600*%
D10*
X0073702Y0063571D02*
X0073704Y0063666D01*
X0073710Y0063760D01*
X0073720Y0063855D01*
X0073734Y0063949D01*
X0073751Y0064042D01*
X0073773Y0064134D01*
X0073799Y0064225D01*
X0073828Y0064316D01*
X0073861Y0064404D01*
X0073898Y0064492D01*
X0073938Y0064578D01*
X0073982Y0064662D01*
X0074029Y0064744D01*
X0074080Y0064824D01*
X0074134Y0064902D01*
X0074192Y0064977D01*
X0074252Y0065050D01*
X0074316Y0065121D01*
X0074382Y0065189D01*
X0074451Y0065253D01*
X0074523Y0065315D01*
X0074597Y0065374D01*
X0074674Y0065430D01*
X0074753Y0065483D01*
X0074834Y0065532D01*
X0074917Y0065577D01*
X0075002Y0065620D01*
X0075089Y0065658D01*
X0075177Y0065693D01*
X0075266Y0065724D01*
X0075357Y0065752D01*
X0075449Y0065775D01*
X0075542Y0065795D01*
X0075635Y0065811D01*
X0075729Y0065823D01*
X0075824Y0065831D01*
X0075919Y0065835D01*
X0076013Y0065835D01*
X0076108Y0065831D01*
X0076203Y0065823D01*
X0076297Y0065811D01*
X0076390Y0065795D01*
X0076483Y0065775D01*
X0076575Y0065752D01*
X0076666Y0065724D01*
X0076755Y0065693D01*
X0076843Y0065658D01*
X0076930Y0065620D01*
X0077015Y0065577D01*
X0077098Y0065532D01*
X0077179Y0065483D01*
X0077258Y0065430D01*
X0077335Y0065374D01*
X0077409Y0065315D01*
X0077481Y0065253D01*
X0077550Y0065189D01*
X0077616Y0065121D01*
X0077680Y0065050D01*
X0077740Y0064977D01*
X0077798Y0064902D01*
X0077852Y0064824D01*
X0077903Y0064744D01*
X0077950Y0064662D01*
X0077994Y0064578D01*
X0078034Y0064492D01*
X0078071Y0064404D01*
X0078104Y0064316D01*
X0078133Y0064225D01*
X0078159Y0064134D01*
X0078181Y0064042D01*
X0078198Y0063949D01*
X0078212Y0063855D01*
X0078222Y0063760D01*
X0078228Y0063666D01*
X0078230Y0063571D01*
X0078228Y0063476D01*
X0078222Y0063382D01*
X0078212Y0063287D01*
X0078198Y0063193D01*
X0078181Y0063100D01*
X0078159Y0063008D01*
X0078133Y0062917D01*
X0078104Y0062826D01*
X0078071Y0062738D01*
X0078034Y0062650D01*
X0077994Y0062564D01*
X0077950Y0062480D01*
X0077903Y0062398D01*
X0077852Y0062318D01*
X0077798Y0062240D01*
X0077740Y0062165D01*
X0077680Y0062092D01*
X0077616Y0062021D01*
X0077550Y0061953D01*
X0077481Y0061889D01*
X0077409Y0061827D01*
X0077335Y0061768D01*
X0077258Y0061712D01*
X0077179Y0061659D01*
X0077098Y0061610D01*
X0077015Y0061565D01*
X0076930Y0061522D01*
X0076843Y0061484D01*
X0076755Y0061449D01*
X0076666Y0061418D01*
X0076575Y0061390D01*
X0076483Y0061367D01*
X0076390Y0061347D01*
X0076297Y0061331D01*
X0076203Y0061319D01*
X0076108Y0061311D01*
X0076013Y0061307D01*
X0075919Y0061307D01*
X0075824Y0061311D01*
X0075729Y0061319D01*
X0075635Y0061331D01*
X0075542Y0061347D01*
X0075449Y0061367D01*
X0075357Y0061390D01*
X0075266Y0061418D01*
X0075177Y0061449D01*
X0075089Y0061484D01*
X0075002Y0061522D01*
X0074917Y0061565D01*
X0074834Y0061610D01*
X0074753Y0061659D01*
X0074674Y0061712D01*
X0074597Y0061768D01*
X0074523Y0061827D01*
X0074451Y0061889D01*
X0074382Y0061953D01*
X0074316Y0062021D01*
X0074252Y0062092D01*
X0074192Y0062165D01*
X0074134Y0062240D01*
X0074080Y0062318D01*
X0074029Y0062398D01*
X0073982Y0062480D01*
X0073938Y0062564D01*
X0073898Y0062650D01*
X0073861Y0062738D01*
X0073828Y0062826D01*
X0073799Y0062917D01*
X0073773Y0063008D01*
X0073751Y0063100D01*
X0073734Y0063193D01*
X0073720Y0063287D01*
X0073710Y0063382D01*
X0073704Y0063476D01*
X0073702Y0063571D01*
X0061175Y0076099D02*
X0061177Y0076194D01*
X0061183Y0076288D01*
X0061193Y0076383D01*
X0061207Y0076477D01*
X0061224Y0076570D01*
X0061246Y0076662D01*
X0061272Y0076753D01*
X0061301Y0076844D01*
X0061334Y0076932D01*
X0061371Y0077020D01*
X0061411Y0077106D01*
X0061455Y0077190D01*
X0061502Y0077272D01*
X0061553Y0077352D01*
X0061607Y0077430D01*
X0061665Y0077505D01*
X0061725Y0077578D01*
X0061789Y0077649D01*
X0061855Y0077717D01*
X0061924Y0077781D01*
X0061996Y0077843D01*
X0062070Y0077902D01*
X0062147Y0077958D01*
X0062226Y0078011D01*
X0062307Y0078060D01*
X0062390Y0078105D01*
X0062475Y0078148D01*
X0062562Y0078186D01*
X0062650Y0078221D01*
X0062739Y0078252D01*
X0062830Y0078280D01*
X0062922Y0078303D01*
X0063015Y0078323D01*
X0063108Y0078339D01*
X0063202Y0078351D01*
X0063297Y0078359D01*
X0063392Y0078363D01*
X0063486Y0078363D01*
X0063581Y0078359D01*
X0063676Y0078351D01*
X0063770Y0078339D01*
X0063863Y0078323D01*
X0063956Y0078303D01*
X0064048Y0078280D01*
X0064139Y0078252D01*
X0064228Y0078221D01*
X0064316Y0078186D01*
X0064403Y0078148D01*
X0064488Y0078105D01*
X0064571Y0078060D01*
X0064652Y0078011D01*
X0064731Y0077958D01*
X0064808Y0077902D01*
X0064882Y0077843D01*
X0064954Y0077781D01*
X0065023Y0077717D01*
X0065089Y0077649D01*
X0065153Y0077578D01*
X0065213Y0077505D01*
X0065271Y0077430D01*
X0065325Y0077352D01*
X0065376Y0077272D01*
X0065423Y0077190D01*
X0065467Y0077106D01*
X0065507Y0077020D01*
X0065544Y0076932D01*
X0065577Y0076844D01*
X0065606Y0076753D01*
X0065632Y0076662D01*
X0065654Y0076570D01*
X0065671Y0076477D01*
X0065685Y0076383D01*
X0065695Y0076288D01*
X0065701Y0076194D01*
X0065703Y0076099D01*
X0065701Y0076004D01*
X0065695Y0075910D01*
X0065685Y0075815D01*
X0065671Y0075721D01*
X0065654Y0075628D01*
X0065632Y0075536D01*
X0065606Y0075445D01*
X0065577Y0075354D01*
X0065544Y0075266D01*
X0065507Y0075178D01*
X0065467Y0075092D01*
X0065423Y0075008D01*
X0065376Y0074926D01*
X0065325Y0074846D01*
X0065271Y0074768D01*
X0065213Y0074693D01*
X0065153Y0074620D01*
X0065089Y0074549D01*
X0065023Y0074481D01*
X0064954Y0074417D01*
X0064882Y0074355D01*
X0064808Y0074296D01*
X0064731Y0074240D01*
X0064652Y0074187D01*
X0064571Y0074138D01*
X0064488Y0074093D01*
X0064403Y0074050D01*
X0064316Y0074012D01*
X0064228Y0073977D01*
X0064139Y0073946D01*
X0064048Y0073918D01*
X0063956Y0073895D01*
X0063863Y0073875D01*
X0063770Y0073859D01*
X0063676Y0073847D01*
X0063581Y0073839D01*
X0063486Y0073835D01*
X0063392Y0073835D01*
X0063297Y0073839D01*
X0063202Y0073847D01*
X0063108Y0073859D01*
X0063015Y0073875D01*
X0062922Y0073895D01*
X0062830Y0073918D01*
X0062739Y0073946D01*
X0062650Y0073977D01*
X0062562Y0074012D01*
X0062475Y0074050D01*
X0062390Y0074093D01*
X0062307Y0074138D01*
X0062226Y0074187D01*
X0062147Y0074240D01*
X0062070Y0074296D01*
X0061996Y0074355D01*
X0061924Y0074417D01*
X0061855Y0074481D01*
X0061789Y0074549D01*
X0061725Y0074620D01*
X0061665Y0074693D01*
X0061607Y0074768D01*
X0061553Y0074846D01*
X0061502Y0074926D01*
X0061455Y0075008D01*
X0061411Y0075092D01*
X0061371Y0075178D01*
X0061334Y0075266D01*
X0061301Y0075354D01*
X0061272Y0075445D01*
X0061246Y0075536D01*
X0061224Y0075628D01*
X0061207Y0075721D01*
X0061193Y0075815D01*
X0061183Y0075910D01*
X0061177Y0076004D01*
X0061175Y0076099D01*
X0044703Y0079835D02*
X0079703Y0044835D01*
X0124703Y0044835D01*
X0144703Y0064835D01*
X0144703Y0144835D01*
X0064703Y0144835D01*
X0044703Y0124835D01*
X0044703Y0079835D01*
D11*
X0123971Y0087099D02*
X0124962Y0088090D01*
X0125622Y0088090D01*
X0126943Y0086769D01*
X0126943Y0086109D01*
X0125953Y0085118D01*
X0123971Y0087099D01*
X0127045Y0088853D02*
X0127706Y0089513D01*
X0128366Y0089513D01*
X0129357Y0088522D01*
X0128366Y0087531D01*
X0127706Y0087531D01*
X0127706Y0088192D01*
X0128697Y0089183D01*
X0130120Y0089285D02*
X0128799Y0090606D01*
X0129789Y0091597D01*
X0130450Y0091597D01*
X0131441Y0090606D01*
X0132864Y0090708D02*
X0133194Y0091038D01*
X0133194Y0091698D01*
X0131543Y0093350D01*
X0130882Y0094010D02*
X0130552Y0094341D01*
X0132601Y0094409D02*
X0132601Y0093748D01*
X0133262Y0093087D01*
X0133922Y0093087D01*
X0134583Y0093748D01*
X0134583Y0094409D01*
X0133922Y0095069D01*
X0133262Y0095069D01*
X0132601Y0094409D01*
X0134355Y0096162D02*
X0136336Y0095501D01*
X0135676Y0097483D01*
X0136438Y0098245D02*
X0136768Y0098576D01*
X0138089Y0097254D01*
X0137759Y0096924D02*
X0138420Y0097585D01*
X0138818Y0098643D02*
X0138157Y0099304D01*
X0138157Y0099965D01*
X0139148Y0100955D01*
X0140469Y0099634D02*
X0139478Y0098643D01*
X0138818Y0098643D01*
X0136108Y0099236D02*
X0135778Y0099566D01*
X0139043Y0094671D02*
X0137722Y0093350D01*
X0138712Y0092359D01*
X0139043Y0093350D01*
X0139373Y0093680D01*
X0140033Y0093680D01*
X0140694Y0093020D01*
X0140694Y0092359D01*
X0140033Y0091698D01*
X0139373Y0091698D01*
X0138941Y0090606D02*
X0137620Y0089285D01*
X0138280Y0089945D02*
X0136299Y0091927D01*
X0136299Y0090606D01*
X0135206Y0090174D02*
X0136527Y0088853D01*
X0136527Y0088192D01*
X0135866Y0087531D01*
X0135206Y0087531D01*
X0135206Y0090174D01*
X0134545Y0090174D01*
X0133885Y0089513D01*
X0133885Y0088853D01*
X0135206Y0087531D01*
X0134774Y0086439D02*
X0133453Y0085118D01*
X0133453Y0087760D01*
X0133122Y0088090D01*
X0132462Y0088090D01*
X0131801Y0087430D01*
X0131801Y0086769D01*
D12*
X0122899Y0076073D02*
X0122403Y0076073D01*
X0121412Y0075083D01*
X0121412Y0074587D01*
X0121908Y0074092D01*
X0122403Y0074092D01*
X0122899Y0074587D01*
X0122403Y0075083D01*
X0123394Y0075083D02*
X0123394Y0075578D01*
X0122899Y0076073D01*
X0124214Y0074758D02*
X0123718Y0072281D01*
X0125204Y0073768D01*
X0125776Y0073196D02*
X0126519Y0072453D01*
X0126519Y0071957D01*
X0125528Y0070967D01*
X0125033Y0070967D01*
X0124290Y0071710D01*
X0125776Y0073196D01*
X0124214Y0074758D02*
X0122727Y0073272D01*
X0115399Y0067583D02*
X0115151Y0067830D01*
X0114160Y0067830D01*
X0113665Y0067335D02*
X0114656Y0068326D01*
X0115710Y0066776D02*
X0116205Y0066776D01*
X0116949Y0066033D01*
X0116205Y0065785D02*
X0116205Y0065290D01*
X0115710Y0065290D01*
X0114967Y0066033D01*
X0115710Y0066280D02*
X0115710Y0066776D01*
X0115710Y0066280D02*
X0116205Y0065785D01*
X0117520Y0065461D02*
X0118016Y0064965D01*
X0118016Y0065461D02*
X0117025Y0064470D01*
X0117025Y0063975D01*
X0107040Y0053779D02*
X0106356Y0053779D01*
X0105672Y0053095D01*
X0105672Y0052411D01*
X0104956Y0051696D02*
X0104272Y0051696D01*
X0103588Y0051012D01*
X0103588Y0050328D01*
X0103930Y0049986D01*
X0104614Y0049985D01*
X0105298Y0050670D01*
X0105983Y0050670D01*
X0106325Y0050328D01*
X0106325Y0049643D01*
X0105640Y0048959D01*
X0104956Y0048959D01*
X0107382Y0050701D02*
X0108750Y0052069D01*
X0107382Y0050701D02*
X0107382Y0053437D01*
X0107040Y0053779D01*
X0104741Y0078035D02*
X0102806Y0078035D01*
X0103774Y0078035D02*
X0103774Y0080937D01*
X0102806Y0079970D01*
X0101795Y0080454D02*
X0101311Y0080937D01*
X0100343Y0080937D01*
X0099860Y0080454D01*
X0099860Y0078519D01*
X0100343Y0078035D01*
X0101311Y0078035D01*
X0101795Y0078519D01*
X0098863Y0078035D02*
X0097895Y0078035D01*
X0098379Y0078035D02*
X0098379Y0080937D01*
X0097895Y0080937D02*
X0098863Y0080937D01*
X0066409Y0114947D02*
X0066161Y0116185D01*
X0067399Y0115938D01*
X0067152Y0117176D02*
X0065666Y0115690D01*
X0065094Y0116262D02*
X0064351Y0117005D01*
X0064351Y0117500D01*
X0064846Y0117996D01*
X0065341Y0117996D01*
X0066084Y0117253D01*
X0064522Y0118815D02*
X0063779Y0119558D01*
X0063283Y0119558D01*
X0063283Y0119063D01*
X0063779Y0118568D01*
X0063779Y0118072D01*
X0063283Y0118072D01*
X0062540Y0118815D01*
X0066551Y0122305D02*
X0067046Y0121809D01*
X0066798Y0122057D02*
X0067789Y0123048D01*
X0067541Y0123296D01*
X0068285Y0123543D02*
X0068532Y0123791D01*
X0068336Y0122006D02*
X0068831Y0122006D01*
X0069574Y0121263D01*
X0068831Y0121015D02*
X0068336Y0121511D01*
X0068336Y0122006D01*
X0067592Y0121263D02*
X0068336Y0120520D01*
X0068831Y0120520D01*
X0068831Y0121015D01*
X0069898Y0120444D02*
X0069403Y0119948D01*
X0069403Y0119453D01*
X0069898Y0118957D01*
X0070394Y0118957D01*
X0070889Y0119453D01*
X0070889Y0119948D01*
X0070394Y0120444D01*
X0069898Y0120444D01*
X0072606Y0123749D02*
X0073102Y0123749D01*
X0073102Y0124244D01*
X0072606Y0124740D01*
X0072606Y0125235D01*
X0073102Y0125235D01*
X0073845Y0124492D01*
X0074417Y0123920D02*
X0074664Y0123673D01*
X0073674Y0122682D01*
X0073426Y0122930D02*
X0073921Y0122434D01*
X0072606Y0123749D02*
X0071863Y0124492D01*
X0071539Y0125312D02*
X0072035Y0125807D01*
X0072035Y0126303D01*
X0071539Y0126798D01*
X0071044Y0126798D01*
X0070548Y0126303D01*
X0070548Y0125807D01*
X0071044Y0125312D01*
X0071539Y0125312D01*
X0069729Y0126627D02*
X0070472Y0127370D01*
X0070472Y0127865D01*
X0069977Y0127865D01*
X0069233Y0127122D01*
X0068738Y0127617D02*
X0069729Y0128608D01*
X0069977Y0128361D01*
X0069977Y0127865D01*
X0066227Y0124611D02*
X0066227Y0124115D01*
X0066722Y0124115D01*
X0066722Y0123620D01*
X0065979Y0122877D01*
X0065483Y0123372D02*
X0066227Y0124115D01*
X0066227Y0124611D02*
X0065979Y0124858D01*
X0064988Y0123867D01*
X0075160Y0124168D02*
X0075408Y0124416D01*
X0080938Y0120706D02*
X0081965Y0121732D01*
X0082649Y0121732D01*
X0084017Y0120364D01*
X0084017Y0119680D01*
X0082991Y0118654D01*
X0080938Y0120706D01*
X0083364Y0122447D02*
X0083706Y0122105D01*
X0084390Y0122105D01*
X0085074Y0122789D01*
X0085758Y0122789D01*
X0086100Y0122447D01*
X0086100Y0121763D01*
X0085416Y0121079D01*
X0084732Y0121079D01*
X0083364Y0122447D02*
X0083364Y0123132D01*
X0084048Y0123816D01*
X0084732Y0123816D01*
X0085789Y0124189D02*
X0085789Y0125557D01*
X0087842Y0123505D01*
X0087158Y0122821D02*
X0088526Y0124189D01*
X0091103Y0132485D02*
X0091103Y0135387D01*
X0092554Y0135387D01*
X0093038Y0134904D01*
X0093038Y0133936D01*
X0092554Y0133452D01*
X0091103Y0133452D01*
X0092070Y0133452D02*
X0093038Y0132485D01*
X0094049Y0132969D02*
X0094533Y0132485D01*
X0095500Y0132485D01*
X0095984Y0132969D01*
X0095984Y0133936D01*
X0095500Y0134420D01*
X0095017Y0134420D01*
X0094049Y0133936D01*
X0094049Y0135387D01*
X0095984Y0135387D01*
X0053750Y0107069D02*
X0052382Y0105701D01*
X0053066Y0106385D02*
X0051014Y0108437D01*
X0051014Y0107069D01*
X0049956Y0106696D02*
X0049272Y0106696D01*
X0048588Y0106012D01*
X0048588Y0105328D01*
X0048930Y0104986D01*
X0049614Y0104985D01*
X0050298Y0105670D01*
X0050983Y0105670D01*
X0051325Y0105328D01*
X0051325Y0104643D01*
X0050640Y0103959D01*
X0049956Y0103959D01*
D13*
X0055166Y0099878D02*
X0053562Y0098274D01*
X0055968Y0095868D01*
X0057572Y0097472D01*
X0058171Y0098873D02*
X0058973Y0098873D01*
X0059775Y0099675D01*
X0059775Y0100477D01*
X0058171Y0098873D02*
X0056567Y0100477D01*
X0056567Y0101279D01*
X0057369Y0102081D01*
X0058171Y0102081D01*
X0058770Y0103483D02*
X0060375Y0105087D01*
X0059573Y0104285D02*
X0061979Y0101878D01*
X0061551Y0095775D02*
X0095643Y0061684D01*
X0143924Y0109964D01*
X0109832Y0144056D01*
X0061551Y0095775D01*
X0055567Y0097873D02*
X0054765Y0097071D01*
X0054968Y0094867D02*
X0053364Y0093263D01*
X0050957Y0095669D01*
X0049957Y0094669D02*
X0048353Y0093065D01*
X0050759Y0090659D01*
X0052363Y0092263D01*
X0050358Y0092664D02*
X0049556Y0091862D01*
X0048957Y0090461D02*
X0048155Y0090461D01*
X0047353Y0089659D01*
X0046551Y0089659D01*
X0046150Y0090060D01*
X0046150Y0090862D01*
X0046952Y0091664D01*
X0047754Y0091664D01*
X0048957Y0090461D02*
X0049358Y0090060D01*
X0049358Y0089258D01*
X0048556Y0088455D01*
X0047754Y0088455D01*
X0054450Y0114582D02*
X0044550Y0124481D01*
X0047732Y0127663D01*
X0065056Y0144987D01*
X0074956Y0135088D01*
X0074249Y0134381D02*
X0072834Y0135795D01*
X0074249Y0134381D02*
X0072127Y0132260D01*
X0072834Y0131552D01*
X0070713Y0129431D01*
X0070006Y0130138D01*
X0066824Y0126956D01*
X0066117Y0127663D01*
X0061874Y0123421D01*
X0062581Y0122714D01*
X0059753Y0119885D01*
X0060460Y0119178D01*
X0057985Y0116703D01*
X0057278Y0117410D01*
X0055157Y0115289D01*
X0053742Y0116703D01*
X0049500Y0120946D02*
X0045964Y0124481D01*
X0053742Y0132260D01*
X0056571Y0129431D01*
X0060106Y0132967D01*
X0057278Y0135795D01*
X0053742Y0132260D01*
X0050561Y0131906D02*
X0047025Y0128370D01*
X0047732Y0127663D01*
X0050561Y0131906D02*
X0049500Y0132967D01*
X0056571Y0140038D01*
X0057632Y0138977D01*
X0050561Y0131906D01*
X0057278Y0135795D02*
X0065056Y0143573D01*
X0068592Y0140038D01*
X0061874Y0141805D02*
X0061167Y0142513D01*
X0057632Y0138977D01*
X0088403Y0116134D02*
X0116002Y0116134D01*
X0116002Y0089933D01*
X0114604Y0088536D01*
X0088403Y0088536D01*
X0088403Y0116134D01*
X0111589Y0091535D02*
X0111591Y0091610D01*
X0111597Y0091684D01*
X0111607Y0091758D01*
X0111620Y0091831D01*
X0111638Y0091904D01*
X0111659Y0091975D01*
X0111684Y0092046D01*
X0111713Y0092115D01*
X0111746Y0092182D01*
X0111782Y0092247D01*
X0111821Y0092311D01*
X0111863Y0092372D01*
X0111909Y0092431D01*
X0111958Y0092488D01*
X0112010Y0092541D01*
X0112064Y0092592D01*
X0112121Y0092641D01*
X0112181Y0092685D01*
X0112243Y0092727D01*
X0112307Y0092766D01*
X0112373Y0092801D01*
X0112440Y0092832D01*
X0112510Y0092860D01*
X0112580Y0092884D01*
X0112652Y0092905D01*
X0112725Y0092921D01*
X0112798Y0092934D01*
X0112873Y0092943D01*
X0112947Y0092948D01*
X0113022Y0092949D01*
X0113096Y0092946D01*
X0113171Y0092939D01*
X0113244Y0092928D01*
X0113318Y0092914D01*
X0113390Y0092895D01*
X0113461Y0092873D01*
X0113531Y0092847D01*
X0113600Y0092817D01*
X0113666Y0092784D01*
X0113731Y0092747D01*
X0113794Y0092707D01*
X0113855Y0092663D01*
X0113913Y0092617D01*
X0113969Y0092567D01*
X0114022Y0092515D01*
X0114073Y0092460D01*
X0114120Y0092402D01*
X0114164Y0092342D01*
X0114205Y0092279D01*
X0114243Y0092215D01*
X0114277Y0092149D01*
X0114308Y0092080D01*
X0114335Y0092011D01*
X0114358Y0091940D01*
X0114377Y0091868D01*
X0114393Y0091795D01*
X0114405Y0091721D01*
X0114413Y0091647D01*
X0114417Y0091572D01*
X0114417Y0091498D01*
X0114413Y0091423D01*
X0114405Y0091349D01*
X0114393Y0091275D01*
X0114377Y0091202D01*
X0114358Y0091130D01*
X0114335Y0091059D01*
X0114308Y0090990D01*
X0114277Y0090921D01*
X0114243Y0090855D01*
X0114205Y0090791D01*
X0114164Y0090728D01*
X0114120Y0090668D01*
X0114073Y0090610D01*
X0114022Y0090555D01*
X0113969Y0090503D01*
X0113913Y0090453D01*
X0113855Y0090407D01*
X0113794Y0090363D01*
X0113731Y0090323D01*
X0113666Y0090286D01*
X0113600Y0090253D01*
X0113531Y0090223D01*
X0113461Y0090197D01*
X0113390Y0090175D01*
X0113318Y0090156D01*
X0113244Y0090142D01*
X0113171Y0090131D01*
X0113096Y0090124D01*
X0113022Y0090121D01*
X0112947Y0090122D01*
X0112873Y0090127D01*
X0112798Y0090136D01*
X0112725Y0090149D01*
X0112652Y0090165D01*
X0112580Y0090186D01*
X0112510Y0090210D01*
X0112440Y0090238D01*
X0112373Y0090269D01*
X0112307Y0090304D01*
X0112243Y0090343D01*
X0112181Y0090385D01*
X0112121Y0090429D01*
X0112064Y0090478D01*
X0112010Y0090529D01*
X0111958Y0090582D01*
X0111909Y0090639D01*
X0111863Y0090698D01*
X0111821Y0090759D01*
X0111782Y0090823D01*
X0111746Y0090888D01*
X0111713Y0090955D01*
X0111684Y0091024D01*
X0111659Y0091095D01*
X0111638Y0091166D01*
X0111620Y0091239D01*
X0111607Y0091312D01*
X0111597Y0091386D01*
X0111591Y0091460D01*
X0111589Y0091535D01*
X0131420Y0072967D02*
X0132127Y0072260D01*
X0134249Y0074381D01*
X0135663Y0072967D01*
X0134956Y0075088D02*
X0144855Y0065188D01*
X0141673Y0062006D01*
X0124349Y0044682D01*
X0114450Y0054582D01*
X0115157Y0055289D02*
X0116571Y0053875D01*
X0115157Y0055289D02*
X0117278Y0057410D01*
X0116571Y0058117D01*
X0118692Y0060239D01*
X0119399Y0059532D01*
X0122581Y0062714D01*
X0123288Y0062006D01*
X0127531Y0066249D01*
X0126824Y0066956D01*
X0129652Y0069785D01*
X0128945Y0070492D01*
X0131420Y0072967D01*
X0139905Y0068724D02*
X0143441Y0065188D01*
X0135663Y0057410D01*
X0132834Y0060239D01*
X0129299Y0056703D01*
X0132127Y0053875D01*
X0135663Y0057410D01*
X0138845Y0057764D02*
X0139905Y0056703D01*
X0132834Y0049632D01*
X0131774Y0050693D01*
X0138845Y0057764D01*
X0142380Y0061299D01*
X0141673Y0062006D01*
X0132127Y0053875D02*
X0124349Y0046097D01*
X0120814Y0049632D01*
X0127531Y0047864D02*
X0128238Y0047157D01*
X0131774Y0050693D01*
X0104880Y0058529D02*
X0104880Y0059331D01*
X0103276Y0060936D01*
X0102474Y0060936D01*
X0101270Y0059733D01*
X0103677Y0057326D01*
X0104880Y0058529D01*
X0102676Y0056326D02*
X0100270Y0058732D01*
X0098666Y0057128D02*
X0102676Y0056326D01*
X0101072Y0054722D02*
X0098666Y0057128D01*
X0097666Y0056128D02*
X0096062Y0054524D01*
X0098468Y0052118D01*
X0100072Y0053722D01*
X0098067Y0054123D02*
X0097265Y0053321D01*
X0096666Y0051919D02*
X0095864Y0051919D01*
X0095061Y0051117D01*
X0094259Y0051117D01*
X0093858Y0051518D01*
X0093858Y0052320D01*
X0094660Y0053123D01*
X0095463Y0053123D01*
X0096666Y0051919D02*
X0097067Y0051518D01*
X0097067Y0050716D01*
X0096265Y0049914D01*
X0095463Y0049914D01*
M02*
