G75*
%MOIN*%
%OFA0B0*%
%FSLAX25Y25*%
%IPPOS*%
%LPD*%
%AMOC8*
5,1,8,0,0,1.08239X$1,22.5*
%
%ADD10C,0.01320*%
%ADD11C,0.09450*%
%ADD12R,0.05718X0.06506*%
%ADD13R,0.06899X0.07687*%
%ADD14R,0.21600X0.08200*%
%ADD15R,0.06112X0.07687*%
%ADD16C,0.06033*%
%ADD17C,0.05128*%
%ADD18C,0.07687*%
%ADD19C,0.08474*%
%ADD20C,0.05324*%
%ADD21C,0.03969*%
%ADD22C,0.16411*%
D10*
X0123853Y0055510D02*
X0124513Y0056170D01*
X0124513Y0053984D01*
X0122967Y0052438D01*
X0120781Y0052438D01*
X0119235Y0053984D01*
X0119235Y0056170D01*
X0120781Y0057716D01*
X0122967Y0057716D01*
X0124513Y0056170D01*
X0123523Y0055760D01*
X0123523Y0054394D01*
X0122557Y0053428D01*
X0121191Y0053428D01*
X0120225Y0054394D01*
X0120225Y0055760D01*
X0121191Y0056726D01*
X0122557Y0056726D01*
X0123523Y0055760D01*
X0122533Y0055350D01*
X0122533Y0054804D01*
X0122147Y0054418D01*
X0121601Y0054418D01*
X0121215Y0054804D01*
X0121215Y0055350D01*
X0121601Y0055736D01*
X0122147Y0055736D01*
X0122533Y0055350D01*
X0136440Y0068096D02*
X0137100Y0068756D01*
X0137100Y0066570D01*
X0135554Y0065024D01*
X0133368Y0065024D01*
X0131822Y0066570D01*
X0131822Y0068756D01*
X0133368Y0070302D01*
X0135554Y0070302D01*
X0137100Y0068756D01*
X0136110Y0068346D01*
X0136110Y0066980D01*
X0135144Y0066014D01*
X0133778Y0066014D01*
X0132812Y0066980D01*
X0132812Y0068346D01*
X0133778Y0069312D01*
X0135144Y0069312D01*
X0136110Y0068346D01*
X0135120Y0067936D01*
X0135120Y0067390D01*
X0134734Y0067004D01*
X0134188Y0067004D01*
X0133802Y0067390D01*
X0133802Y0067936D01*
X0134188Y0068322D01*
X0134734Y0068322D01*
X0135120Y0067936D01*
X0065552Y0134160D02*
X0064892Y0133500D01*
X0064892Y0135686D01*
X0066438Y0137232D01*
X0068624Y0137232D01*
X0070170Y0135686D01*
X0070170Y0133500D01*
X0068624Y0131954D01*
X0066438Y0131954D01*
X0064892Y0133500D01*
X0065882Y0133910D01*
X0065882Y0135276D01*
X0066848Y0136242D01*
X0068214Y0136242D01*
X0069180Y0135276D01*
X0069180Y0133910D01*
X0068214Y0132944D01*
X0066848Y0132944D01*
X0065882Y0133910D01*
X0066872Y0134320D01*
X0066872Y0134866D01*
X0067258Y0135252D01*
X0067804Y0135252D01*
X0068190Y0134866D01*
X0068190Y0134320D01*
X0067804Y0133934D01*
X0067258Y0133934D01*
X0066872Y0134320D01*
X0052966Y0121573D02*
X0052306Y0120913D01*
X0052306Y0123099D01*
X0053852Y0124645D01*
X0056038Y0124645D01*
X0057584Y0123099D01*
X0057584Y0120913D01*
X0056038Y0119367D01*
X0053852Y0119367D01*
X0052306Y0120913D01*
X0053296Y0121323D01*
X0053296Y0122689D01*
X0054262Y0123655D01*
X0055628Y0123655D01*
X0056594Y0122689D01*
X0056594Y0121323D01*
X0055628Y0120357D01*
X0054262Y0120357D01*
X0053296Y0121323D01*
X0054286Y0121733D01*
X0054286Y0122279D01*
X0054672Y0122665D01*
X0055218Y0122665D01*
X0055604Y0122279D01*
X0055604Y0121733D01*
X0055218Y0121347D01*
X0054672Y0121347D01*
X0054286Y0121733D01*
D11*
X0058409Y0111612D03*
X0077926Y0131128D03*
X0130996Y0078058D03*
X0111480Y0058542D03*
D12*
G36*
X0116379Y0069412D02*
X0112336Y0065369D01*
X0107737Y0069968D01*
X0111780Y0074011D01*
X0116379Y0069412D01*
G37*
G36*
X0121668Y0074702D02*
X0117625Y0070659D01*
X0113026Y0075258D01*
X0117069Y0079301D01*
X0121668Y0074702D01*
G37*
G36*
X0126379Y0084412D02*
X0122336Y0080369D01*
X0117737Y0084968D01*
X0121780Y0089011D01*
X0126379Y0084412D01*
G37*
G36*
X0131668Y0089702D02*
X0127625Y0085659D01*
X0123026Y0090258D01*
X0127069Y0094301D01*
X0131668Y0089702D01*
G37*
G36*
X0111668Y0097202D02*
X0107625Y0093159D01*
X0103026Y0097758D01*
X0107069Y0101801D01*
X0111668Y0097202D01*
G37*
G36*
X0106379Y0091912D02*
X0102336Y0087869D01*
X0097737Y0092468D01*
X0101780Y0096511D01*
X0106379Y0091912D01*
G37*
G36*
X0100129Y0098162D02*
X0096086Y0094119D01*
X0091487Y0098718D01*
X0095530Y0102761D01*
X0100129Y0098162D01*
G37*
G36*
X0105418Y0103452D02*
X0101375Y0099409D01*
X0096776Y0104008D01*
X0100819Y0108051D01*
X0105418Y0103452D01*
G37*
G36*
X0096668Y0112202D02*
X0092625Y0108159D01*
X0088026Y0112758D01*
X0092069Y0116801D01*
X0096668Y0112202D01*
G37*
G36*
X0091379Y0106912D02*
X0087336Y0102869D01*
X0082737Y0107468D01*
X0086780Y0111511D01*
X0091379Y0106912D01*
G37*
G36*
X0088879Y0121912D02*
X0084836Y0117869D01*
X0080237Y0122468D01*
X0084280Y0126511D01*
X0088879Y0121912D01*
G37*
G36*
X0094168Y0127202D02*
X0090125Y0123159D01*
X0085526Y0127758D01*
X0089569Y0131801D01*
X0094168Y0127202D01*
G37*
D13*
G36*
X0073444Y0116510D02*
X0078322Y0121388D01*
X0083756Y0115954D01*
X0078878Y0111076D01*
X0073444Y0116510D01*
G37*
G36*
X0065649Y0108715D02*
X0070527Y0113593D01*
X0075961Y0108159D01*
X0071083Y0103281D01*
X0065649Y0108715D01*
G37*
D14*
G36*
X0096531Y0138805D02*
X0111803Y0123533D01*
X0106005Y0117735D01*
X0090733Y0133007D01*
X0096531Y0138805D01*
G37*
G36*
X0123401Y0111935D02*
X0138673Y0096663D01*
X0132875Y0090865D01*
X0117603Y0106137D01*
X0123401Y0111935D01*
G37*
D15*
G36*
X0091914Y0079689D02*
X0087592Y0084011D01*
X0093026Y0089445D01*
X0097348Y0085123D01*
X0091914Y0079689D01*
G37*
G36*
X0101379Y0070224D02*
X0097057Y0074546D01*
X0102491Y0079980D01*
X0106813Y0075658D01*
X0101379Y0070224D01*
G37*
G36*
X0087491Y0094980D02*
X0091813Y0090658D01*
X0086379Y0085224D01*
X0082057Y0089546D01*
X0087491Y0094980D01*
G37*
G36*
X0078026Y0104445D02*
X0082348Y0100123D01*
X0076914Y0094689D01*
X0072592Y0099011D01*
X0078026Y0104445D01*
G37*
D16*
X0065805Y0085425D03*
X0072765Y0078465D03*
X0078333Y0072897D03*
X0085292Y0065937D03*
D17*
X0075966Y0063571D03*
X0063439Y0076099D03*
D18*
X0051051Y0083476D02*
X0056062Y0088487D01*
D19*
X0088633Y0056472D02*
X0083065Y0050904D01*
D20*
X0095632Y0067480D03*
X0088561Y0074551D03*
X0081489Y0081622D03*
X0074418Y0088693D03*
X0067347Y0095764D03*
X0109774Y0138190D03*
X0116845Y0131119D03*
X0123916Y0124048D03*
X0130987Y0116977D03*
X0138058Y0109906D03*
D21*
X0110953Y0108585D03*
X0110953Y0113585D03*
X0110953Y0101085D03*
X0110953Y0093585D03*
X0107203Y0079835D03*
X0078453Y0107335D03*
X0095953Y0108585D03*
D22*
X0134703Y0134835D03*
M02*
