%
M48
M72
T01C0.01969
T02C0.03150
T03C0.03622
T04C0.04000
T05C0.04528
T06C0.05900
T07C0.11811
%
T01
X107203Y79835
X110953Y93585
X110953Y101085
X110953Y108585
X110953Y113585
X95953Y108585
X78453Y107335
T02
X67347Y95764
X74418Y88693
X81489Y81622
X88561Y74551
X95632Y67480
X138058Y109906
X130987Y116977
X123916Y124048
X116845Y131119
X109774Y138190
T03
X53556Y85981
X65805Y85425
X72765Y78465
X78333Y72897
X85292Y65937
X85849Y53688
T04
X121874Y55077
X134461Y67663
X67531Y134593
X54945Y122006
T05
X75966Y63571
X63439Y76099
T06
X58409Y111612
X77926Y131128
X130996Y78058
X111480Y58542
T07
X134703Y134835
M30
