G75*
%MOIN*%
%OFA0B0*%
%FSLAX25Y25*%
%IPPOS*%
%LPD*%
%AMOC8*
5,1,8,0,0,1.08239X$1,22.5*
%
%ADD10R,0.05000X0.02200*%
%ADD11R,0.02200X0.05000*%
%ADD12C,0.01200*%
%ADD13C,0.08850*%
%ADD14R,0.05118X0.05906*%
%ADD15C,0.05433*%
%ADD16C,0.07087*%
%ADD17C,0.07874*%
%ADD18C,0.04724*%
%ADD19C,0.01000*%
%ADD20C,0.03369*%
%ADD21C,0.04000*%
%ADD22C,0.15811*%
D10*
X0085303Y0091311D03*
X0085303Y0094461D03*
X0085303Y0097610D03*
X0085303Y0100760D03*
X0085303Y0103910D03*
X0085303Y0107059D03*
X0085303Y0110209D03*
X0085303Y0113359D03*
X0119103Y0113359D03*
X0119103Y0110209D03*
X0119103Y0107059D03*
X0119103Y0103910D03*
X0119103Y0100760D03*
X0119103Y0097610D03*
X0119103Y0094461D03*
X0119103Y0091311D03*
D11*
X0113226Y0085435D03*
X0110077Y0085435D03*
X0106927Y0085435D03*
X0103777Y0085435D03*
X0100628Y0085435D03*
X0097478Y0085435D03*
X0094329Y0085435D03*
X0091179Y0085435D03*
X0091179Y0119235D03*
X0094329Y0119235D03*
X0097478Y0119235D03*
X0100628Y0119235D03*
X0103777Y0119235D03*
X0106927Y0119235D03*
X0110077Y0119235D03*
X0113226Y0119235D03*
D12*
X0065732Y0134199D02*
X0065132Y0133599D01*
X0065132Y0135587D01*
X0066537Y0136992D01*
X0068525Y0136992D01*
X0069930Y0135587D01*
X0069930Y0133599D01*
X0068525Y0132194D01*
X0066537Y0132194D01*
X0065132Y0133599D01*
X0066032Y0133972D01*
X0066032Y0135214D01*
X0066910Y0136092D01*
X0068152Y0136092D01*
X0069030Y0135214D01*
X0069030Y0133972D01*
X0068152Y0133094D01*
X0066910Y0133094D01*
X0066032Y0133972D01*
X0066932Y0134345D01*
X0066932Y0134841D01*
X0067283Y0135192D01*
X0067779Y0135192D01*
X0068130Y0134841D01*
X0068130Y0134345D01*
X0067779Y0133994D01*
X0067283Y0133994D01*
X0066932Y0134345D01*
X0053146Y0121612D02*
X0052546Y0121012D01*
X0052546Y0123000D01*
X0053951Y0124405D01*
X0055939Y0124405D01*
X0057344Y0123000D01*
X0057344Y0121012D01*
X0055939Y0119607D01*
X0053951Y0119607D01*
X0052546Y0121012D01*
X0053446Y0121385D01*
X0053446Y0122627D01*
X0054324Y0123505D01*
X0055566Y0123505D01*
X0056444Y0122627D01*
X0056444Y0121385D01*
X0055566Y0120507D01*
X0054324Y0120507D01*
X0053446Y0121385D01*
X0054346Y0121758D01*
X0054346Y0122254D01*
X0054697Y0122605D01*
X0055193Y0122605D01*
X0055544Y0122254D01*
X0055544Y0121758D01*
X0055193Y0121407D01*
X0054697Y0121407D01*
X0054346Y0121758D01*
X0123673Y0055471D02*
X0124273Y0056071D01*
X0124273Y0054083D01*
X0122868Y0052678D01*
X0120880Y0052678D01*
X0119475Y0054083D01*
X0119475Y0056071D01*
X0120880Y0057476D01*
X0122868Y0057476D01*
X0124273Y0056071D01*
X0123373Y0055698D01*
X0123373Y0054456D01*
X0122495Y0053578D01*
X0121253Y0053578D01*
X0120375Y0054456D01*
X0120375Y0055698D01*
X0121253Y0056576D01*
X0122495Y0056576D01*
X0123373Y0055698D01*
X0122473Y0055325D01*
X0122473Y0054829D01*
X0122122Y0054478D01*
X0121626Y0054478D01*
X0121275Y0054829D01*
X0121275Y0055325D01*
X0121626Y0055676D01*
X0122122Y0055676D01*
X0122473Y0055325D01*
X0136260Y0068057D02*
X0136860Y0068657D01*
X0136860Y0066669D01*
X0135455Y0065264D01*
X0133467Y0065264D01*
X0132062Y0066669D01*
X0132062Y0068657D01*
X0133467Y0070062D01*
X0135455Y0070062D01*
X0136860Y0068657D01*
X0135960Y0068284D01*
X0135960Y0067042D01*
X0135082Y0066164D01*
X0133840Y0066164D01*
X0132962Y0067042D01*
X0132962Y0068284D01*
X0133840Y0069162D01*
X0135082Y0069162D01*
X0135960Y0068284D01*
X0135060Y0067911D01*
X0135060Y0067415D01*
X0134709Y0067064D01*
X0134213Y0067064D01*
X0133862Y0067415D01*
X0133862Y0067911D01*
X0134213Y0068262D01*
X0134709Y0068262D01*
X0135060Y0067911D01*
D13*
X0130996Y0078058D03*
X0111480Y0058542D03*
X0058409Y0111612D03*
X0077926Y0131128D03*
D14*
X0090962Y0139835D03*
X0098443Y0139835D03*
D15*
X0065805Y0085425D03*
X0072765Y0078465D03*
X0078333Y0072897D03*
X0085292Y0065937D03*
D16*
X0056062Y0088487D02*
X0051051Y0083476D01*
D17*
X0083065Y0050904D02*
X0088633Y0056472D01*
D18*
X0095632Y0067480D03*
X0088561Y0074551D03*
X0081489Y0081622D03*
X0074418Y0088693D03*
X0067347Y0095764D03*
X0109774Y0138190D03*
X0116845Y0131119D03*
X0123916Y0124048D03*
X0130987Y0116977D03*
X0138058Y0109906D03*
D19*
X0071603Y0062808D02*
X0064699Y0062808D01*
X0063701Y0063807D02*
X0071603Y0063807D01*
X0071603Y0064439D02*
X0071603Y0062703D01*
X0072267Y0061099D01*
X0073495Y0059872D01*
X0075098Y0059207D01*
X0076834Y0059207D01*
X0078438Y0059872D01*
X0079666Y0061099D01*
X0080330Y0062703D01*
X0080330Y0064439D01*
X0079666Y0066043D01*
X0078438Y0067271D01*
X0076834Y0067935D01*
X0075098Y0067935D01*
X0073495Y0067271D01*
X0072267Y0066043D01*
X0071603Y0064439D01*
X0071754Y0064805D02*
X0062702Y0064805D01*
X0061704Y0065804D02*
X0072168Y0065804D01*
X0073026Y0066802D02*
X0060705Y0066802D01*
X0059707Y0067801D02*
X0074774Y0067801D01*
X0075604Y0068814D02*
X0077375Y0068081D01*
X0079291Y0068081D01*
X0080853Y0068728D01*
X0080853Y0067805D01*
X0080476Y0066896D01*
X0080476Y0064979D01*
X0081209Y0063209D01*
X0082564Y0061854D01*
X0084334Y0061121D01*
X0085781Y0061121D01*
X0085091Y0060619D01*
X0082291Y0057820D01*
X0085849Y0054262D01*
X0085276Y0053688D01*
X0081718Y0057246D01*
X0078918Y0054446D01*
X0078415Y0053754D01*
X0078027Y0052992D01*
X0077762Y0052178D01*
X0077628Y0051332D01*
X0077628Y0050477D01*
X0077741Y0049767D01*
X0048179Y0079329D01*
X0048407Y0079163D01*
X0049115Y0078802D01*
X0049870Y0078557D01*
X0050654Y0078433D01*
X0051448Y0078433D01*
X0052232Y0078557D01*
X0052987Y0078802D01*
X0053694Y0079163D01*
X0054336Y0079629D01*
X0056836Y0082129D01*
X0053556Y0085408D01*
X0054130Y0085981D01*
X0057409Y0082702D01*
X0059908Y0085201D01*
X0060375Y0085844D01*
X0060735Y0086551D01*
X0060981Y0087306D01*
X0061105Y0088090D01*
X0061105Y0088884D01*
X0060981Y0089668D01*
X0060735Y0090423D01*
X0060375Y0091130D01*
X0059914Y0091765D01*
X0065341Y0091765D01*
X0064820Y0091981D02*
X0066460Y0091302D01*
X0068235Y0091302D01*
X0069875Y0091981D01*
X0070664Y0092770D01*
X0071177Y0092257D01*
X0071527Y0092112D01*
X0070636Y0091220D01*
X0069956Y0089580D01*
X0069956Y0087805D01*
X0070636Y0086165D01*
X0071891Y0084910D01*
X0073531Y0084231D01*
X0075306Y0084231D01*
X0076946Y0084910D01*
X0078201Y0086165D01*
X0078881Y0087805D01*
X0078881Y0088711D01*
X0081333Y0088711D01*
X0081933Y0088111D01*
X0084710Y0088111D01*
X0084603Y0087852D01*
X0084603Y0084819D01*
X0084017Y0085405D01*
X0082377Y0086084D01*
X0080602Y0086084D01*
X0078962Y0085405D01*
X0077707Y0084149D01*
X0077027Y0082509D01*
X0077027Y0080761D01*
X0076848Y0081193D01*
X0075493Y0082548D01*
X0073723Y0083281D01*
X0071807Y0083281D01*
X0070037Y0082548D01*
X0068682Y0081193D01*
X0067948Y0079423D01*
X0067948Y0077507D01*
X0068682Y0075737D01*
X0070037Y0074382D01*
X0071807Y0073648D01*
X0073516Y0073648D01*
X0073516Y0071939D01*
X0074249Y0070169D01*
X0075604Y0068814D01*
X0075640Y0068799D02*
X0058708Y0068799D01*
X0057710Y0069798D02*
X0074621Y0069798D01*
X0073990Y0070796D02*
X0056711Y0070796D01*
X0055713Y0071795D02*
X0062426Y0071795D01*
X0062571Y0071735D02*
X0064307Y0071735D01*
X0065911Y0072399D01*
X0067138Y0073627D01*
X0067803Y0075231D01*
X0067803Y0076967D01*
X0067138Y0078570D01*
X0065911Y0079798D01*
X0064307Y0080462D01*
X0062571Y0080462D01*
X0060967Y0079798D01*
X0059739Y0078570D01*
X0059075Y0076967D01*
X0059075Y0075231D01*
X0059739Y0073627D01*
X0060967Y0072399D01*
X0062571Y0071735D01*
X0064451Y0071795D02*
X0073576Y0071795D01*
X0073516Y0072793D02*
X0066305Y0072793D01*
X0067207Y0073792D02*
X0071461Y0073792D01*
X0069628Y0074790D02*
X0067620Y0074790D01*
X0067803Y0075789D02*
X0068660Y0075789D01*
X0068246Y0076787D02*
X0067803Y0076787D01*
X0067948Y0077786D02*
X0067463Y0077786D01*
X0067948Y0078784D02*
X0066925Y0078784D01*
X0065926Y0079783D02*
X0068097Y0079783D01*
X0068511Y0080781D02*
X0055488Y0080781D01*
X0054490Y0079783D02*
X0060952Y0079783D01*
X0059953Y0078784D02*
X0052932Y0078784D01*
X0050720Y0076787D02*
X0059075Y0076787D01*
X0059075Y0075789D02*
X0051719Y0075789D01*
X0052717Y0074790D02*
X0059258Y0074790D01*
X0059671Y0073792D02*
X0053716Y0073792D01*
X0054714Y0072793D02*
X0060573Y0072793D01*
X0059414Y0077786D02*
X0049722Y0077786D01*
X0049170Y0078784D02*
X0048723Y0078784D01*
X0054189Y0084775D02*
X0055336Y0084775D01*
X0055187Y0083777D02*
X0056334Y0083777D01*
X0056186Y0082778D02*
X0057333Y0082778D01*
X0057485Y0082778D02*
X0062516Y0082778D01*
X0062545Y0082738D02*
X0065232Y0085425D01*
X0062545Y0088111D01*
X0062199Y0087635D01*
X0061898Y0087043D01*
X0061693Y0086412D01*
X0061589Y0085756D01*
X0061589Y0085093D01*
X0061693Y0084437D01*
X0061898Y0083806D01*
X0062199Y0083215D01*
X0062545Y0082738D01*
X0062585Y0082778D02*
X0063732Y0082778D01*
X0063119Y0082165D02*
X0063595Y0081818D01*
X0064187Y0081517D01*
X0064818Y0081312D01*
X0065473Y0081208D01*
X0066137Y0081208D01*
X0066793Y0081312D01*
X0067424Y0081517D01*
X0068015Y0081818D01*
X0068492Y0082165D01*
X0065805Y0084851D01*
X0063119Y0082165D01*
X0063671Y0081780D02*
X0056487Y0081780D01*
X0058484Y0083777D02*
X0061912Y0083777D01*
X0061639Y0084775D02*
X0059482Y0084775D01*
X0060324Y0085774D02*
X0061591Y0085774D01*
X0061810Y0086772D02*
X0060807Y0086772D01*
X0061054Y0087771D02*
X0062298Y0087771D01*
X0062885Y0087771D02*
X0064032Y0087771D01*
X0063884Y0086772D02*
X0065031Y0086772D01*
X0064882Y0085774D02*
X0065581Y0085774D01*
X0065805Y0085998D02*
X0065232Y0085425D01*
X0065805Y0084851D01*
X0066379Y0085425D01*
X0065805Y0085998D01*
X0063119Y0088685D01*
X0063595Y0089031D01*
X0064187Y0089332D01*
X0064818Y0089537D01*
X0065473Y0089641D01*
X0066137Y0089641D01*
X0066793Y0089537D01*
X0067424Y0089332D01*
X0068015Y0089031D01*
X0068492Y0088685D01*
X0065805Y0085998D01*
X0066030Y0085774D02*
X0066728Y0085774D01*
X0066379Y0085425D02*
X0069065Y0088111D01*
X0069412Y0087635D01*
X0069713Y0087043D01*
X0069918Y0086412D01*
X0070022Y0085756D01*
X0070022Y0085093D01*
X0069918Y0084437D01*
X0069713Y0083806D01*
X0069412Y0083215D01*
X0069065Y0082738D01*
X0066379Y0085425D01*
X0065881Y0084775D02*
X0067028Y0084775D01*
X0066880Y0083777D02*
X0068026Y0083777D01*
X0067878Y0082778D02*
X0069025Y0082778D01*
X0069094Y0082778D02*
X0070592Y0082778D01*
X0069698Y0083777D02*
X0077552Y0083777D01*
X0077139Y0082778D02*
X0074938Y0082778D01*
X0076262Y0081780D02*
X0077027Y0081780D01*
X0077019Y0080781D02*
X0077027Y0080781D01*
X0076621Y0084775D02*
X0078333Y0084775D01*
X0077810Y0085774D02*
X0079853Y0085774D01*
X0078453Y0086772D02*
X0084603Y0086772D01*
X0084603Y0085774D02*
X0083125Y0085774D01*
X0084603Y0087771D02*
X0078866Y0087771D01*
X0077037Y0091311D02*
X0074418Y0088693D01*
X0077037Y0091311D02*
X0085303Y0091311D01*
X0085303Y0094461D02*
X0072650Y0094461D01*
X0071347Y0095764D01*
X0067347Y0095764D01*
X0064037Y0092763D02*
X0058756Y0092763D01*
X0058705Y0092800D02*
X0057998Y0093161D01*
X0057243Y0093406D01*
X0056459Y0093530D01*
X0055665Y0093530D01*
X0054881Y0093406D01*
X0054126Y0093161D01*
X0053418Y0092800D01*
X0052776Y0092334D01*
X0050277Y0089834D01*
X0053556Y0086555D01*
X0052983Y0085981D01*
X0049703Y0089261D01*
X0047204Y0086761D01*
X0046803Y0086209D01*
X0046803Y0123965D01*
X0065573Y0142735D01*
X0086903Y0142735D01*
X0086903Y0140335D01*
X0090462Y0140335D01*
X0090462Y0139335D01*
X0086903Y0139335D01*
X0086903Y0136685D01*
X0087006Y0136303D01*
X0087203Y0135961D01*
X0087482Y0135682D01*
X0087824Y0135484D01*
X0088206Y0135382D01*
X0090463Y0135382D01*
X0090463Y0139335D01*
X0091462Y0139335D01*
X0091462Y0135382D01*
X0093719Y0135382D01*
X0094101Y0135484D01*
X0094234Y0135562D01*
X0095014Y0134782D01*
X0101872Y0134782D01*
X0103102Y0136012D01*
X0103102Y0137393D01*
X0103675Y0137631D01*
X0105445Y0139400D01*
X0105312Y0139078D01*
X0105312Y0137405D01*
X0101573Y0133667D01*
X0101177Y0132711D01*
X0101177Y0129537D01*
X0098675Y0132039D01*
X0097720Y0132435D01*
X0089530Y0132435D01*
X0081175Y0140789D01*
X0080220Y0141185D01*
X0071006Y0141185D01*
X0070050Y0140789D01*
X0069319Y0140058D01*
X0068954Y0139693D01*
X0065419Y0139693D01*
X0062431Y0136705D01*
X0062431Y0132480D01*
X0065419Y0129493D01*
X0069644Y0129493D01*
X0071401Y0131250D01*
X0071401Y0129830D01*
X0072394Y0127432D01*
X0074229Y0125597D01*
X0075223Y0125185D01*
X0075137Y0125185D01*
X0073630Y0124561D01*
X0072477Y0123407D01*
X0071853Y0121900D01*
X0071853Y0121435D01*
X0071387Y0121435D01*
X0069880Y0120811D01*
X0068727Y0119657D01*
X0068103Y0118150D01*
X0068103Y0117685D01*
X0067637Y0117685D01*
X0066130Y0117061D01*
X0064977Y0115907D01*
X0064353Y0114400D01*
X0064353Y0114314D01*
X0063941Y0115308D01*
X0062106Y0117144D01*
X0059707Y0118137D01*
X0057439Y0118137D01*
X0057773Y0118471D01*
X0054945Y0121299D01*
X0055652Y0122006D01*
X0058480Y0119178D01*
X0059445Y0120142D01*
X0059445Y0123870D01*
X0058480Y0124835D01*
X0055652Y0122006D01*
X0054945Y0122714D01*
X0057773Y0125542D01*
X0056809Y0126506D01*
X0053081Y0126506D01*
X0052116Y0125542D01*
X0054945Y0122714D01*
X0054237Y0122006D01*
X0054945Y0121299D01*
X0052116Y0118471D01*
X0053081Y0117506D01*
X0055589Y0117506D01*
X0054713Y0117144D01*
X0052878Y0115308D01*
X0051884Y0112910D01*
X0051884Y0110314D01*
X0052878Y0107916D01*
X0054713Y0106080D01*
X0057111Y0105087D01*
X0059707Y0105087D01*
X0062106Y0106080D01*
X0063941Y0107916D01*
X0064934Y0110314D01*
X0064934Y0111365D01*
X0064977Y0111262D01*
X0068630Y0107609D01*
X0070137Y0106985D01*
X0071768Y0106985D01*
X0073275Y0107609D01*
X0074151Y0108485D01*
X0074833Y0108485D01*
X0074668Y0108088D01*
X0074668Y0106582D01*
X0075245Y0105191D01*
X0076309Y0104127D01*
X0077700Y0103551D01*
X0079205Y0103551D01*
X0080596Y0104127D01*
X0080703Y0104233D01*
X0080703Y0101940D01*
X0081303Y0101340D01*
X0081303Y0100810D01*
X0081832Y0100810D01*
X0081882Y0100760D01*
X0081832Y0100710D01*
X0081303Y0100710D01*
X0081303Y0100180D01*
X0080703Y0099580D01*
X0080703Y0097061D01*
X0073727Y0097061D01*
X0072820Y0097968D01*
X0071864Y0098364D01*
X0071058Y0098364D01*
X0069875Y0099547D01*
X0068235Y0100226D01*
X0066460Y0100226D01*
X0064820Y0099547D01*
X0063564Y0098291D01*
X0062885Y0096651D01*
X0062885Y0094876D01*
X0063564Y0093236D01*
X0064820Y0091981D01*
X0063347Y0093762D02*
X0046803Y0093762D01*
X0046803Y0094760D02*
X0062933Y0094760D01*
X0062885Y0095759D02*
X0046803Y0095759D01*
X0046803Y0096757D02*
X0062929Y0096757D01*
X0063343Y0097756D02*
X0046803Y0097756D01*
X0046803Y0098755D02*
X0064027Y0098755D01*
X0065318Y0099753D02*
X0046803Y0099753D01*
X0046803Y0100752D02*
X0081874Y0100752D01*
X0080892Y0101750D02*
X0046803Y0101750D01*
X0046803Y0102749D02*
X0080703Y0102749D01*
X0080703Y0103747D02*
X0079680Y0103747D01*
X0077226Y0103747D02*
X0046803Y0103747D01*
X0046803Y0104746D02*
X0075690Y0104746D01*
X0075016Y0105744D02*
X0061294Y0105744D01*
X0062768Y0106743D02*
X0074668Y0106743D01*
X0074668Y0107741D02*
X0073407Y0107741D01*
X0070953Y0111085D02*
X0079703Y0111085D01*
X0081976Y0113359D01*
X0085303Y0113359D01*
X0085303Y0110209D02*
X0081327Y0110209D01*
X0078453Y0107335D01*
X0078453Y0113585D02*
X0075953Y0113585D01*
X0074703Y0114835D01*
X0078453Y0113585D02*
X0084103Y0119235D01*
X0091179Y0119235D01*
X0094329Y0119235D02*
X0094329Y0123959D01*
X0092203Y0126085D01*
X0083453Y0126085D01*
X0077203Y0119835D01*
X0071853Y0121720D02*
X0059445Y0121720D01*
X0059445Y0120722D02*
X0069791Y0120722D01*
X0068793Y0119723D02*
X0059025Y0119723D01*
X0057935Y0119723D02*
X0056521Y0119723D01*
X0056936Y0120722D02*
X0055522Y0120722D01*
X0055366Y0121720D02*
X0055938Y0121720D01*
X0056364Y0122719D02*
X0054950Y0122719D01*
X0054939Y0122719D02*
X0053525Y0122719D01*
X0054237Y0122006D02*
X0051409Y0124835D01*
X0050445Y0123870D01*
X0050445Y0120142D01*
X0051409Y0119178D01*
X0054237Y0122006D01*
X0053951Y0121720D02*
X0054524Y0121720D01*
X0054367Y0120722D02*
X0052953Y0120722D01*
X0053368Y0119723D02*
X0051954Y0119723D01*
X0052370Y0118725D02*
X0046803Y0118725D01*
X0046803Y0119723D02*
X0050864Y0119723D01*
X0050445Y0120722D02*
X0046803Y0120722D01*
X0046803Y0121720D02*
X0050445Y0121720D01*
X0050445Y0122719D02*
X0046803Y0122719D01*
X0046803Y0123717D02*
X0050445Y0123717D01*
X0051290Y0124716D02*
X0047553Y0124716D01*
X0048552Y0125714D02*
X0052288Y0125714D01*
X0052942Y0124716D02*
X0051528Y0124716D01*
X0052527Y0123717D02*
X0053941Y0123717D01*
X0055948Y0123717D02*
X0057362Y0123717D01*
X0056947Y0124716D02*
X0058361Y0124716D01*
X0058599Y0124716D02*
X0074005Y0124716D01*
X0074112Y0125714D02*
X0057601Y0125714D01*
X0059445Y0123717D02*
X0072787Y0123717D01*
X0072192Y0122719D02*
X0059445Y0122719D01*
X0057519Y0118725D02*
X0068341Y0118725D01*
X0068103Y0117726D02*
X0060699Y0117726D01*
X0062521Y0116728D02*
X0065797Y0116728D01*
X0064903Y0115729D02*
X0063520Y0115729D01*
X0064180Y0114731D02*
X0064489Y0114731D01*
X0064934Y0110737D02*
X0065503Y0110737D01*
X0064696Y0109738D02*
X0066501Y0109738D01*
X0067500Y0108740D02*
X0064282Y0108740D01*
X0063766Y0107741D02*
X0068498Y0107741D01*
X0069377Y0099753D02*
X0080875Y0099753D01*
X0080703Y0098755D02*
X0070667Y0098755D01*
X0073032Y0097756D02*
X0080703Y0097756D01*
X0077470Y0099567D02*
X0077470Y0100760D01*
X0085303Y0100760D01*
X0085303Y0110209D02*
X0092203Y0110209D01*
X0094329Y0112335D01*
X0099703Y0112335D01*
X0107203Y0104835D01*
X0113453Y0104835D01*
X0114703Y0103585D01*
X0114703Y0102335D01*
X0116277Y0100760D01*
X0119103Y0100760D01*
X0119103Y0097610D02*
X0125953Y0097610D01*
X0125953Y0098585D01*
X0123703Y0098790D02*
X0123703Y0102730D01*
X0123103Y0103330D01*
X0123103Y0103860D01*
X0122573Y0103860D01*
X0122523Y0103910D01*
X0122573Y0103960D01*
X0123103Y0103960D01*
X0123103Y0104489D01*
X0123703Y0105089D01*
X0123703Y0114377D01*
X0127276Y0114377D01*
X0128459Y0113194D01*
X0130099Y0112515D01*
X0131875Y0112515D01*
X0133515Y0113194D01*
X0134770Y0114449D01*
X0134884Y0114726D01*
X0135458Y0114153D01*
X0135458Y0113616D01*
X0134275Y0112434D01*
X0133596Y0110794D01*
X0133596Y0109018D01*
X0134275Y0107378D01*
X0135530Y0106123D01*
X0137170Y0105444D01*
X0138946Y0105444D01*
X0140586Y0106123D01*
X0141841Y0107378D01*
X0142520Y0109018D01*
X0142520Y0110794D01*
X0141841Y0112434D01*
X0140658Y0113616D01*
X0140658Y0115747D01*
X0140262Y0116702D01*
X0139531Y0117434D01*
X0139531Y0117434D01*
X0133675Y0123289D01*
X0132720Y0123685D01*
X0131685Y0123685D01*
X0128378Y0123685D01*
X0128378Y0124936D01*
X0127699Y0126576D01*
X0126516Y0127759D01*
X0126516Y0131139D01*
X0126120Y0132094D01*
X0125389Y0132826D01*
X0125389Y0132826D01*
X0115480Y0142735D01*
X0142603Y0142735D01*
X0142603Y0065705D01*
X0123833Y0046935D01*
X0086785Y0046935D01*
X0089407Y0049557D01*
X0085849Y0053115D01*
X0086423Y0053688D01*
X0089980Y0050131D01*
X0092780Y0052930D01*
X0093283Y0053623D01*
X0093672Y0054385D01*
X0093936Y0055199D01*
X0094070Y0056044D01*
X0094070Y0056900D01*
X0093936Y0057745D01*
X0093672Y0058559D01*
X0093283Y0059322D01*
X0092780Y0060014D01*
X0092764Y0060030D01*
X0086423Y0053688D01*
X0085849Y0054262D01*
X0092191Y0060603D01*
X0092175Y0060619D01*
X0091483Y0061122D01*
X0090720Y0061511D01*
X0089906Y0061775D01*
X0089061Y0061909D01*
X0088205Y0061909D01*
X0088051Y0061885D01*
X0089376Y0063209D01*
X0090109Y0064979D01*
X0090109Y0066896D01*
X0089376Y0068666D01*
X0088021Y0070021D01*
X0087857Y0070088D01*
X0089448Y0070088D01*
X0091088Y0070768D01*
X0092343Y0072023D01*
X0093023Y0073663D01*
X0093023Y0074735D01*
X0096470Y0074735D01*
X0097425Y0075131D01*
X0098028Y0075733D01*
X0098028Y0073553D01*
X0096417Y0071942D01*
X0094744Y0071942D01*
X0093104Y0071262D01*
X0091849Y0070007D01*
X0091169Y0068367D01*
X0091169Y0066592D01*
X0091849Y0064952D01*
X0093104Y0063697D01*
X0094744Y0063017D01*
X0096519Y0063017D01*
X0098159Y0063697D01*
X0099414Y0064952D01*
X0100094Y0066592D01*
X0100094Y0068265D01*
X0102832Y0071003D01*
X0103228Y0071959D01*
X0103228Y0072633D01*
X0104998Y0070862D01*
X0105730Y0070131D01*
X0106376Y0069863D01*
X0109880Y0066359D01*
X0111387Y0065735D01*
X0113018Y0065735D01*
X0114525Y0066359D01*
X0115678Y0067512D01*
X0116303Y0069019D01*
X0116303Y0069558D01*
X0119670Y0066191D01*
X0120401Y0065459D01*
X0121357Y0065063D01*
X0129848Y0065063D01*
X0132348Y0062563D01*
X0136573Y0062563D01*
X0139561Y0065551D01*
X0139561Y0069776D01*
X0136573Y0072763D01*
X0134929Y0072763D01*
X0136528Y0074362D01*
X0137521Y0076760D01*
X0137521Y0079356D01*
X0136528Y0081754D01*
X0134692Y0083589D01*
X0132294Y0084583D01*
X0129698Y0084583D01*
X0127300Y0083589D01*
X0125464Y0081754D01*
X0124471Y0079356D01*
X0124471Y0076760D01*
X0125464Y0074362D01*
X0127300Y0072526D01*
X0129698Y0071533D01*
X0131118Y0071533D01*
X0129848Y0070263D01*
X0122951Y0070263D01*
X0112677Y0080538D01*
X0112677Y0080835D01*
X0115196Y0080835D01*
X0116426Y0082065D01*
X0116426Y0088111D01*
X0122473Y0088111D01*
X0123703Y0089341D01*
X0123703Y0096431D01*
X0123103Y0097031D01*
X0123103Y0097560D01*
X0122573Y0097560D01*
X0122523Y0097610D01*
X0122573Y0097660D01*
X0123103Y0097660D01*
X0123103Y0098190D01*
X0123703Y0098790D01*
X0123667Y0098755D02*
X0142603Y0098755D01*
X0142603Y0099753D02*
X0123703Y0099753D01*
X0123703Y0100752D02*
X0142603Y0100752D01*
X0142603Y0101750D02*
X0123703Y0101750D01*
X0123684Y0102749D02*
X0142603Y0102749D01*
X0142603Y0103747D02*
X0123103Y0103747D01*
X0123359Y0104746D02*
X0142603Y0104746D01*
X0142603Y0105744D02*
X0139671Y0105744D01*
X0141205Y0106743D02*
X0142603Y0106743D01*
X0142603Y0107741D02*
X0141991Y0107741D01*
X0142405Y0108740D02*
X0142603Y0108740D01*
X0142603Y0109738D02*
X0142520Y0109738D01*
X0142520Y0110737D02*
X0142603Y0110737D01*
X0142603Y0111735D02*
X0142130Y0111735D01*
X0142603Y0112734D02*
X0141541Y0112734D01*
X0140658Y0113732D02*
X0142603Y0113732D01*
X0142603Y0114731D02*
X0140658Y0114731D01*
X0140658Y0115729D02*
X0142603Y0115729D01*
X0142603Y0116728D02*
X0140237Y0116728D01*
X0139238Y0117726D02*
X0142603Y0117726D01*
X0142603Y0118725D02*
X0138240Y0118725D01*
X0137241Y0119723D02*
X0142603Y0119723D01*
X0142603Y0120722D02*
X0136243Y0120722D01*
X0135244Y0121720D02*
X0142603Y0121720D01*
X0142603Y0122719D02*
X0134246Y0122719D01*
X0132203Y0121085D02*
X0138058Y0115230D01*
X0138058Y0109906D01*
X0134911Y0106743D02*
X0123703Y0106743D01*
X0123703Y0107741D02*
X0134125Y0107741D01*
X0133711Y0108740D02*
X0123703Y0108740D01*
X0123703Y0109738D02*
X0133596Y0109738D01*
X0133596Y0110737D02*
X0123703Y0110737D01*
X0123703Y0111735D02*
X0133986Y0111735D01*
X0134575Y0112734D02*
X0132403Y0112734D01*
X0134053Y0113732D02*
X0135458Y0113732D01*
X0130987Y0116977D02*
X0117561Y0116977D01*
X0115303Y0119235D01*
X0113226Y0119235D01*
X0110077Y0119235D02*
X0110077Y0122709D01*
X0110953Y0123585D01*
X0115953Y0123585D01*
X0119703Y0119835D01*
X0127203Y0119835D01*
X0128453Y0121085D01*
X0132203Y0121085D01*
X0128378Y0123717D02*
X0142603Y0123717D01*
X0142603Y0124716D02*
X0128378Y0124716D01*
X0128056Y0125714D02*
X0142603Y0125714D01*
X0142603Y0126713D02*
X0127562Y0126713D01*
X0126563Y0127711D02*
X0142603Y0127711D01*
X0142603Y0128710D02*
X0126516Y0128710D01*
X0126516Y0129708D02*
X0142603Y0129708D01*
X0142603Y0130707D02*
X0126516Y0130707D01*
X0126281Y0131705D02*
X0142603Y0131705D01*
X0142603Y0132704D02*
X0125511Y0132704D01*
X0124512Y0133702D02*
X0142603Y0133702D01*
X0142603Y0134701D02*
X0123514Y0134701D01*
X0122515Y0135699D02*
X0142603Y0135699D01*
X0142603Y0136698D02*
X0121517Y0136698D01*
X0120518Y0137696D02*
X0142603Y0137696D01*
X0142603Y0138695D02*
X0119520Y0138695D01*
X0118521Y0139693D02*
X0142603Y0139693D01*
X0142603Y0140692D02*
X0117522Y0140692D01*
X0116524Y0141690D02*
X0142603Y0141690D01*
X0142603Y0142689D02*
X0115525Y0142689D01*
X0112203Y0142335D02*
X0104703Y0142335D01*
X0102203Y0139835D01*
X0098443Y0139835D01*
X0103102Y0136698D02*
X0104605Y0136698D01*
X0105312Y0137696D02*
X0103741Y0137696D01*
X0104740Y0138695D02*
X0105312Y0138695D01*
X0103606Y0135699D02*
X0102789Y0135699D01*
X0102607Y0134701D02*
X0087264Y0134701D01*
X0087465Y0135699D02*
X0086265Y0135699D01*
X0086903Y0136698D02*
X0085267Y0136698D01*
X0084268Y0137696D02*
X0086903Y0137696D01*
X0086903Y0138695D02*
X0083270Y0138695D01*
X0082271Y0139693D02*
X0090462Y0139693D01*
X0090463Y0138695D02*
X0091462Y0138695D01*
X0091462Y0137696D02*
X0090463Y0137696D01*
X0090463Y0136698D02*
X0091462Y0136698D01*
X0091462Y0135699D02*
X0090463Y0135699D01*
X0088262Y0133702D02*
X0101609Y0133702D01*
X0101177Y0132704D02*
X0089261Y0132704D01*
X0088453Y0129835D02*
X0097203Y0129835D01*
X0100628Y0126410D01*
X0100628Y0119235D01*
X0103777Y0119235D02*
X0103777Y0132194D01*
X0109774Y0138190D01*
X0112203Y0142335D02*
X0123916Y0130622D01*
X0123916Y0124048D01*
X0116845Y0131119D02*
X0112237Y0131119D01*
X0106927Y0125809D01*
X0106927Y0119235D01*
X0110953Y0113585D02*
X0111179Y0113359D01*
X0119103Y0113359D01*
X0119103Y0110209D02*
X0112577Y0110209D01*
X0110953Y0108585D01*
X0113453Y0104835D02*
X0115677Y0107059D01*
X0119103Y0107059D01*
X0119103Y0103910D02*
X0125953Y0103910D01*
X0125953Y0103585D01*
X0123703Y0105744D02*
X0136445Y0105744D01*
X0129571Y0112734D02*
X0123703Y0112734D01*
X0123703Y0113732D02*
X0127921Y0113732D01*
X0123103Y0097756D02*
X0142603Y0097756D01*
X0142603Y0096757D02*
X0123376Y0096757D01*
X0123703Y0095759D02*
X0142603Y0095759D01*
X0142603Y0094760D02*
X0123703Y0094760D01*
X0123703Y0093762D02*
X0142603Y0093762D01*
X0142603Y0092763D02*
X0123703Y0092763D01*
X0123703Y0091765D02*
X0142603Y0091765D01*
X0142603Y0090766D02*
X0123703Y0090766D01*
X0123703Y0089768D02*
X0142603Y0089768D01*
X0142603Y0088769D02*
X0123131Y0088769D01*
X0119103Y0091311D02*
X0113226Y0091311D01*
X0110953Y0093585D01*
X0113453Y0096085D02*
X0113453Y0098585D01*
X0110953Y0101085D01*
X0107203Y0097335D02*
X0095953Y0108585D01*
X0092203Y0110209D02*
X0092203Y0092335D01*
X0087203Y0087335D01*
X0087203Y0079835D01*
X0083453Y0076085D01*
X0083453Y0067777D01*
X0085292Y0065937D01*
X0080962Y0063807D02*
X0080330Y0063807D01*
X0080330Y0062808D02*
X0081610Y0062808D01*
X0082672Y0061810D02*
X0079960Y0061810D01*
X0079378Y0060811D02*
X0085355Y0060811D01*
X0084284Y0059813D02*
X0078295Y0059813D01*
X0081289Y0056817D02*
X0070690Y0056817D01*
X0069692Y0057816D02*
X0082295Y0057816D01*
X0082147Y0056817D02*
X0083294Y0056817D01*
X0083146Y0055819D02*
X0084292Y0055819D01*
X0084144Y0054820D02*
X0085291Y0054820D01*
X0085409Y0053821D02*
X0085143Y0053821D01*
X0086290Y0053821D02*
X0086556Y0053821D01*
X0086407Y0054820D02*
X0087554Y0054820D01*
X0087406Y0055819D02*
X0088553Y0055819D01*
X0088404Y0056817D02*
X0089551Y0056817D01*
X0089403Y0057816D02*
X0090550Y0057816D01*
X0090401Y0058814D02*
X0091548Y0058814D01*
X0091400Y0059813D02*
X0092547Y0059813D01*
X0092927Y0059813D02*
X0104955Y0059813D01*
X0104955Y0059840D02*
X0104955Y0057244D01*
X0105948Y0054846D01*
X0107784Y0053010D01*
X0110182Y0052017D01*
X0112778Y0052017D01*
X0115176Y0053010D01*
X0117011Y0054846D01*
X0117374Y0055722D01*
X0117374Y0053213D01*
X0118339Y0052248D01*
X0121167Y0055077D01*
X0118339Y0057905D01*
X0118005Y0057571D01*
X0118005Y0059840D01*
X0117011Y0062238D01*
X0115176Y0064073D01*
X0112778Y0065067D01*
X0110182Y0065067D01*
X0107784Y0064073D01*
X0105948Y0062238D01*
X0104955Y0059840D01*
X0104955Y0058814D02*
X0093542Y0058814D01*
X0093913Y0057816D02*
X0104955Y0057816D01*
X0105131Y0056817D02*
X0094070Y0056817D01*
X0094034Y0055819D02*
X0105545Y0055819D01*
X0105974Y0054820D02*
X0093813Y0054820D01*
X0093385Y0053821D02*
X0106972Y0053821D01*
X0108235Y0052823D02*
X0092673Y0052823D01*
X0091674Y0051824D02*
X0119329Y0051824D01*
X0119046Y0051541D02*
X0120010Y0050577D01*
X0123738Y0050577D01*
X0124703Y0051541D01*
X0121874Y0054370D01*
X0119046Y0051541D01*
X0119761Y0050826D02*
X0090676Y0050826D01*
X0089285Y0050826D02*
X0088138Y0050826D01*
X0088287Y0051824D02*
X0087140Y0051824D01*
X0087288Y0052823D02*
X0086141Y0052823D01*
X0089137Y0049827D02*
X0126725Y0049827D01*
X0125727Y0048829D02*
X0088679Y0048829D01*
X0087680Y0047830D02*
X0124728Y0047830D01*
X0123987Y0050826D02*
X0127724Y0050826D01*
X0128722Y0051824D02*
X0124419Y0051824D01*
X0125410Y0052248D02*
X0126374Y0053213D01*
X0126374Y0056941D01*
X0125410Y0057905D01*
X0122581Y0055077D01*
X0121874Y0055784D01*
X0121167Y0055077D01*
X0121874Y0054370D01*
X0122581Y0055077D01*
X0125410Y0052248D01*
X0125984Y0052823D02*
X0129721Y0052823D01*
X0130719Y0053821D02*
X0126374Y0053821D01*
X0126374Y0054820D02*
X0131718Y0054820D01*
X0132716Y0055819D02*
X0126374Y0055819D01*
X0126374Y0056817D02*
X0133715Y0056817D01*
X0134713Y0057816D02*
X0125499Y0057816D01*
X0125320Y0057816D02*
X0123906Y0057816D01*
X0124322Y0056817D02*
X0122907Y0056817D01*
X0123323Y0055819D02*
X0121909Y0055819D01*
X0121874Y0055784D02*
X0124703Y0058612D01*
X0123738Y0059577D01*
X0120010Y0059577D01*
X0119046Y0058612D01*
X0121874Y0055784D01*
X0121840Y0055819D02*
X0120425Y0055819D01*
X0120841Y0056817D02*
X0119427Y0056817D01*
X0119843Y0057816D02*
X0118428Y0057816D01*
X0118249Y0057816D02*
X0118005Y0057816D01*
X0118005Y0058814D02*
X0119248Y0058814D01*
X0118005Y0059813D02*
X0136710Y0059813D01*
X0135712Y0058814D02*
X0124501Y0058814D01*
X0122838Y0054820D02*
X0122325Y0054820D01*
X0121424Y0054820D02*
X0120910Y0054820D01*
X0121326Y0053821D02*
X0119912Y0053821D01*
X0120328Y0052823D02*
X0118913Y0052823D01*
X0117764Y0052823D02*
X0114724Y0052823D01*
X0115987Y0053821D02*
X0117374Y0053821D01*
X0117374Y0054820D02*
X0116986Y0054820D01*
X0122422Y0053821D02*
X0123837Y0053821D01*
X0123421Y0052823D02*
X0124835Y0052823D01*
X0117602Y0060811D02*
X0137709Y0060811D01*
X0138708Y0061810D02*
X0117189Y0061810D01*
X0116441Y0062808D02*
X0132103Y0062808D01*
X0131105Y0063807D02*
X0115443Y0063807D01*
X0114968Y0066802D02*
X0119058Y0066802D01*
X0118060Y0067801D02*
X0115798Y0067801D01*
X0116211Y0068799D02*
X0117061Y0068799D01*
X0120057Y0065804D02*
X0113184Y0065804D01*
X0113409Y0064805D02*
X0130106Y0064805D01*
X0134461Y0067663D02*
X0121874Y0067663D01*
X0110077Y0079461D01*
X0110077Y0085435D01*
X0113226Y0085435D02*
X0113226Y0088811D01*
X0112203Y0089835D01*
X0109703Y0089835D01*
X0107203Y0092335D01*
X0107203Y0097335D01*
X0113453Y0096085D02*
X0114703Y0094835D01*
X0118729Y0094835D01*
X0119103Y0094461D01*
X0116426Y0087771D02*
X0142603Y0087771D01*
X0142603Y0086772D02*
X0116426Y0086772D01*
X0116426Y0085774D02*
X0142603Y0085774D01*
X0142603Y0084775D02*
X0116426Y0084775D01*
X0116426Y0083777D02*
X0127752Y0083777D01*
X0126489Y0082778D02*
X0116426Y0082778D01*
X0116141Y0081780D02*
X0125490Y0081780D01*
X0125061Y0080781D02*
X0112677Y0080781D01*
X0113432Y0079783D02*
X0124648Y0079783D01*
X0124471Y0078784D02*
X0114430Y0078784D01*
X0115429Y0077786D02*
X0124471Y0077786D01*
X0124471Y0076787D02*
X0116427Y0076787D01*
X0117426Y0075789D02*
X0124873Y0075789D01*
X0125287Y0074790D02*
X0118424Y0074790D01*
X0119423Y0073792D02*
X0126034Y0073792D01*
X0127033Y0072793D02*
X0120421Y0072793D01*
X0121420Y0071795D02*
X0129066Y0071795D01*
X0130381Y0070796D02*
X0122418Y0070796D01*
X0111221Y0065804D02*
X0099767Y0065804D01*
X0100094Y0066802D02*
X0109437Y0066802D01*
X0108439Y0067801D02*
X0100094Y0067801D01*
X0100628Y0068799D02*
X0107440Y0068799D01*
X0106442Y0069798D02*
X0101627Y0069798D01*
X0102625Y0070796D02*
X0105064Y0070796D01*
X0104066Y0071795D02*
X0103160Y0071795D01*
X0100628Y0072476D02*
X0095632Y0067480D01*
X0092638Y0070796D02*
X0091117Y0070796D01*
X0091762Y0069798D02*
X0088244Y0069798D01*
X0089242Y0068799D02*
X0091348Y0068799D01*
X0091169Y0067801D02*
X0089734Y0067801D01*
X0090109Y0066802D02*
X0091169Y0066802D01*
X0091496Y0065804D02*
X0090109Y0065804D01*
X0090037Y0064805D02*
X0091995Y0064805D01*
X0092994Y0063807D02*
X0089623Y0063807D01*
X0088975Y0062808D02*
X0106518Y0062808D01*
X0105771Y0061810D02*
X0089690Y0061810D01*
X0091911Y0060811D02*
X0105357Y0060811D01*
X0107517Y0063807D02*
X0098269Y0063807D01*
X0099268Y0064805D02*
X0109551Y0064805D01*
X0109703Y0072335D02*
X0107203Y0072335D01*
X0104703Y0074835D01*
X0104703Y0079835D01*
X0107203Y0079835D01*
X0104703Y0079835D02*
X0103777Y0080760D01*
X0103777Y0085435D01*
X0100628Y0085435D02*
X0100628Y0072476D01*
X0098028Y0073792D02*
X0093023Y0073792D01*
X0092662Y0072793D02*
X0097268Y0072793D01*
X0096603Y0074790D02*
X0098028Y0074790D01*
X0095953Y0077335D02*
X0097478Y0078860D01*
X0097478Y0085435D01*
X0095953Y0077335D02*
X0091345Y0077335D01*
X0088561Y0074551D01*
X0092115Y0071795D02*
X0094389Y0071795D01*
X0080851Y0067801D02*
X0077159Y0067801D01*
X0078907Y0066802D02*
X0080476Y0066802D01*
X0080476Y0065804D02*
X0079765Y0065804D01*
X0080179Y0064805D02*
X0080548Y0064805D01*
X0083286Y0058814D02*
X0068693Y0058814D01*
X0067695Y0059813D02*
X0073637Y0059813D01*
X0072555Y0060811D02*
X0066696Y0060811D01*
X0065698Y0061810D02*
X0071973Y0061810D01*
X0071689Y0055819D02*
X0080290Y0055819D01*
X0079292Y0054820D02*
X0072687Y0054820D01*
X0073686Y0053821D02*
X0078464Y0053821D01*
X0077972Y0052823D02*
X0074684Y0052823D01*
X0075683Y0051824D02*
X0077706Y0051824D01*
X0077628Y0050826D02*
X0076681Y0050826D01*
X0077680Y0049827D02*
X0077731Y0049827D01*
X0069268Y0081780D02*
X0067940Y0081780D01*
X0069971Y0084775D02*
X0072216Y0084775D01*
X0071027Y0085774D02*
X0070019Y0085774D01*
X0069801Y0086772D02*
X0070384Y0086772D01*
X0069970Y0087771D02*
X0069312Y0087771D01*
X0068725Y0087771D02*
X0067578Y0087771D01*
X0067726Y0086772D02*
X0066579Y0086772D01*
X0068375Y0088769D02*
X0069956Y0088769D01*
X0070034Y0089768D02*
X0060948Y0089768D01*
X0061105Y0088769D02*
X0063235Y0088769D01*
X0060560Y0090766D02*
X0070447Y0090766D01*
X0071180Y0091765D02*
X0069353Y0091765D01*
X0070657Y0092763D02*
X0070671Y0092763D01*
X0065729Y0084775D02*
X0064582Y0084775D01*
X0064731Y0083777D02*
X0063584Y0083777D01*
X0057916Y0089768D02*
X0056769Y0089768D01*
X0056918Y0088769D02*
X0055771Y0088769D01*
X0055919Y0087771D02*
X0054772Y0087771D01*
X0054921Y0086772D02*
X0053774Y0086772D01*
X0053556Y0086555D02*
X0059340Y0092339D01*
X0058705Y0092800D01*
X0058766Y0091765D02*
X0059913Y0091765D01*
X0059914Y0091765D02*
X0054130Y0085981D01*
X0053556Y0086555D01*
X0053339Y0086772D02*
X0052192Y0086772D01*
X0052340Y0087771D02*
X0051193Y0087771D01*
X0051342Y0088769D02*
X0050195Y0088769D01*
X0049212Y0088769D02*
X0046803Y0088769D01*
X0046803Y0087771D02*
X0048213Y0087771D01*
X0047215Y0086772D02*
X0046803Y0086772D01*
X0046803Y0089768D02*
X0050343Y0089768D01*
X0051209Y0090766D02*
X0046803Y0090766D01*
X0046803Y0091765D02*
X0052207Y0091765D01*
X0053368Y0092763D02*
X0046803Y0092763D01*
X0053922Y0085774D02*
X0054337Y0085774D01*
X0057768Y0090766D02*
X0058915Y0090766D01*
X0055525Y0105744D02*
X0046803Y0105744D01*
X0046803Y0106743D02*
X0054051Y0106743D01*
X0053053Y0107741D02*
X0046803Y0107741D01*
X0046803Y0108740D02*
X0052537Y0108740D01*
X0052123Y0109738D02*
X0046803Y0109738D01*
X0046803Y0110737D02*
X0051884Y0110737D01*
X0051884Y0111735D02*
X0046803Y0111735D01*
X0046803Y0112734D02*
X0051884Y0112734D01*
X0052225Y0113732D02*
X0046803Y0113732D01*
X0046803Y0114731D02*
X0052639Y0114731D01*
X0053299Y0115729D02*
X0046803Y0115729D01*
X0046803Y0116728D02*
X0054297Y0116728D01*
X0052861Y0117726D02*
X0046803Y0117726D01*
X0049550Y0126713D02*
X0073113Y0126713D01*
X0072278Y0127711D02*
X0050549Y0127711D01*
X0051547Y0128710D02*
X0071865Y0128710D01*
X0071451Y0129708D02*
X0069859Y0129708D01*
X0070857Y0130707D02*
X0071401Y0130707D01*
X0067531Y0134593D02*
X0071523Y0138585D01*
X0079703Y0138585D01*
X0088453Y0129835D01*
X0099009Y0131705D02*
X0101177Y0131705D01*
X0101177Y0130707D02*
X0100008Y0130707D01*
X0101006Y0129708D02*
X0101177Y0129708D01*
X0086903Y0140692D02*
X0081273Y0140692D01*
X0086903Y0141690D02*
X0064528Y0141690D01*
X0063530Y0140692D02*
X0069953Y0140692D01*
X0068955Y0139693D02*
X0062531Y0139693D01*
X0061533Y0138695D02*
X0064421Y0138695D01*
X0063422Y0137696D02*
X0060534Y0137696D01*
X0059536Y0136698D02*
X0062431Y0136698D01*
X0062431Y0135699D02*
X0058537Y0135699D01*
X0057539Y0134701D02*
X0062431Y0134701D01*
X0062431Y0133702D02*
X0056540Y0133702D01*
X0055541Y0132704D02*
X0062431Y0132704D01*
X0063206Y0131705D02*
X0054543Y0131705D01*
X0053544Y0130707D02*
X0064205Y0130707D01*
X0065203Y0129708D02*
X0052546Y0129708D01*
X0065527Y0142689D02*
X0086903Y0142689D01*
X0134240Y0083777D02*
X0142603Y0083777D01*
X0142603Y0082778D02*
X0135503Y0082778D01*
X0136502Y0081780D02*
X0142603Y0081780D01*
X0142603Y0080781D02*
X0136930Y0080781D01*
X0137344Y0079783D02*
X0142603Y0079783D01*
X0142603Y0078784D02*
X0137521Y0078784D01*
X0137521Y0077786D02*
X0142603Y0077786D01*
X0142603Y0076787D02*
X0137521Y0076787D01*
X0137119Y0075789D02*
X0142603Y0075789D01*
X0142603Y0074790D02*
X0136705Y0074790D01*
X0135958Y0073792D02*
X0142603Y0073792D01*
X0142603Y0072793D02*
X0134959Y0072793D01*
X0137542Y0071795D02*
X0142603Y0071795D01*
X0142603Y0070796D02*
X0138540Y0070796D01*
X0139539Y0069798D02*
X0142603Y0069798D01*
X0142603Y0068799D02*
X0139561Y0068799D01*
X0139561Y0067801D02*
X0142603Y0067801D01*
X0142603Y0066802D02*
X0139561Y0066802D01*
X0139561Y0065804D02*
X0142603Y0065804D01*
X0141703Y0064805D02*
X0138815Y0064805D01*
X0137816Y0063807D02*
X0140705Y0063807D01*
X0139706Y0062808D02*
X0136818Y0062808D01*
D20*
X0107203Y0079835D03*
X0110953Y0093585D03*
X0110953Y0101085D03*
X0110953Y0108585D03*
X0110953Y0113585D03*
X0095953Y0108585D03*
X0078453Y0107335D03*
D21*
X0074703Y0114835D02*
X0072203Y0117335D01*
X0075953Y0121085D02*
X0077203Y0119835D01*
X0078453Y0118585D01*
X0070953Y0111085D02*
X0068453Y0113585D01*
X0109703Y0072335D02*
X0112203Y0069835D01*
D22*
X0134703Y0134835D03*
M02*
