G75*
%MOIN*%
%OFA0B0*%
%FSLAX25Y25*%
%IPPOS*%
%LPD*%
%AMOC8*
5,1,8,0,0,1.08239X$1,22.5*
%
%ADD10C,0.04000*%
%ADD11R,0.05600X0.02800*%
%ADD12R,0.02800X0.05600*%
%ADD13C,0.01320*%
%ADD14C,0.09450*%
%ADD15R,0.05718X0.06506*%
%ADD16C,0.06033*%
%ADD17C,0.05128*%
%ADD18C,0.07687*%
%ADD19C,0.08474*%
%ADD20C,0.05324*%
%ADD21C,0.03969*%
%ADD22C,0.16411*%
D10*
X0109703Y0072335D02*
X0112203Y0069835D01*
X0119703Y0077335D02*
X0117203Y0079835D01*
X0078453Y0118585D02*
X0075953Y0121085D01*
X0072203Y0117335D02*
X0074703Y0114835D01*
X0070953Y0111085D02*
X0068453Y0113585D01*
D11*
X0085303Y0113359D03*
X0085303Y0110209D03*
X0085303Y0107059D03*
X0085303Y0103910D03*
X0085303Y0100760D03*
X0085303Y0097610D03*
X0085303Y0094461D03*
X0085303Y0091311D03*
X0119103Y0091311D03*
X0119103Y0094461D03*
X0119103Y0097610D03*
X0119103Y0100760D03*
X0119103Y0103910D03*
X0119103Y0107059D03*
X0119103Y0110209D03*
X0119103Y0113359D03*
D12*
X0113226Y0119235D03*
X0110077Y0119235D03*
X0106927Y0119235D03*
X0103777Y0119235D03*
X0100628Y0119235D03*
X0097478Y0119235D03*
X0094329Y0119235D03*
X0091179Y0119235D03*
X0091179Y0085435D03*
X0094329Y0085435D03*
X0097478Y0085435D03*
X0100628Y0085435D03*
X0103777Y0085435D03*
X0106927Y0085435D03*
X0110077Y0085435D03*
X0113226Y0085435D03*
D13*
X0136440Y0068096D02*
X0137100Y0068756D01*
X0137100Y0066570D01*
X0135554Y0065024D01*
X0133368Y0065024D01*
X0131822Y0066570D01*
X0131822Y0068756D01*
X0133368Y0070302D01*
X0135554Y0070302D01*
X0137100Y0068756D01*
X0136110Y0068346D01*
X0136110Y0066980D01*
X0135144Y0066014D01*
X0133778Y0066014D01*
X0132812Y0066980D01*
X0132812Y0068346D01*
X0133778Y0069312D01*
X0135144Y0069312D01*
X0136110Y0068346D01*
X0135120Y0067936D01*
X0135120Y0067390D01*
X0134734Y0067004D01*
X0134188Y0067004D01*
X0133802Y0067390D01*
X0133802Y0067936D01*
X0134188Y0068322D01*
X0134734Y0068322D01*
X0135120Y0067936D01*
X0123853Y0055510D02*
X0124513Y0056170D01*
X0124513Y0053984D01*
X0122967Y0052438D01*
X0120781Y0052438D01*
X0119235Y0053984D01*
X0119235Y0056170D01*
X0120781Y0057716D01*
X0122967Y0057716D01*
X0124513Y0056170D01*
X0123523Y0055760D01*
X0123523Y0054394D01*
X0122557Y0053428D01*
X0121191Y0053428D01*
X0120225Y0054394D01*
X0120225Y0055760D01*
X0121191Y0056726D01*
X0122557Y0056726D01*
X0123523Y0055760D01*
X0122533Y0055350D01*
X0122533Y0054804D01*
X0122147Y0054418D01*
X0121601Y0054418D01*
X0121215Y0054804D01*
X0121215Y0055350D01*
X0121601Y0055736D01*
X0122147Y0055736D01*
X0122533Y0055350D01*
X0052966Y0121573D02*
X0052306Y0120913D01*
X0052306Y0123099D01*
X0053852Y0124645D01*
X0056038Y0124645D01*
X0057584Y0123099D01*
X0057584Y0120913D01*
X0056038Y0119367D01*
X0053852Y0119367D01*
X0052306Y0120913D01*
X0053296Y0121323D01*
X0053296Y0122689D01*
X0054262Y0123655D01*
X0055628Y0123655D01*
X0056594Y0122689D01*
X0056594Y0121323D01*
X0055628Y0120357D01*
X0054262Y0120357D01*
X0053296Y0121323D01*
X0054286Y0121733D01*
X0054286Y0122279D01*
X0054672Y0122665D01*
X0055218Y0122665D01*
X0055604Y0122279D01*
X0055604Y0121733D01*
X0055218Y0121347D01*
X0054672Y0121347D01*
X0054286Y0121733D01*
X0065552Y0134160D02*
X0064892Y0133500D01*
X0064892Y0135686D01*
X0066438Y0137232D01*
X0068624Y0137232D01*
X0070170Y0135686D01*
X0070170Y0133500D01*
X0068624Y0131954D01*
X0066438Y0131954D01*
X0064892Y0133500D01*
X0065882Y0133910D01*
X0065882Y0135276D01*
X0066848Y0136242D01*
X0068214Y0136242D01*
X0069180Y0135276D01*
X0069180Y0133910D01*
X0068214Y0132944D01*
X0066848Y0132944D01*
X0065882Y0133910D01*
X0066872Y0134320D01*
X0066872Y0134866D01*
X0067258Y0135252D01*
X0067804Y0135252D01*
X0068190Y0134866D01*
X0068190Y0134320D01*
X0067804Y0133934D01*
X0067258Y0133934D01*
X0066872Y0134320D01*
D14*
X0077926Y0131128D03*
X0058409Y0111612D03*
X0111480Y0058542D03*
X0130996Y0078058D03*
D15*
X0098443Y0139835D03*
X0090962Y0139835D03*
D16*
X0065805Y0085425D03*
X0072765Y0078465D03*
X0078333Y0072897D03*
X0085292Y0065937D03*
D17*
X0075966Y0063571D03*
X0063439Y0076099D03*
D18*
X0051051Y0083476D02*
X0056062Y0088487D01*
D19*
X0088633Y0056472D02*
X0083065Y0050904D01*
D20*
X0095632Y0067480D03*
X0088561Y0074551D03*
X0081489Y0081622D03*
X0074418Y0088693D03*
X0067347Y0095764D03*
X0109774Y0138190D03*
X0116845Y0131119D03*
X0123916Y0124048D03*
X0130987Y0116977D03*
X0138058Y0109906D03*
D21*
X0110953Y0108585D03*
X0110953Y0113585D03*
X0110953Y0101085D03*
X0110953Y0093585D03*
X0107203Y0079835D03*
X0078453Y0107335D03*
X0095953Y0108585D03*
D22*
X0134703Y0134835D03*
M02*
